<?xml version="1.0" encoding="UTF-8" standalone="no"?>
<svg
   xmlns:dc="http://purl.org/dc/elements/1.1/"
   xmlns:cc="http://creativecommons.org/ns#"
   xmlns:rdf="http://www.w3.org/1999/02/22-rdf-syntax-ns#"
   xmlns:svg="http://www.w3.org/2000/svg"
   xmlns="http://www.w3.org/2000/svg"
   width="14"
   height="14"
   viewBox="0 0 3.7041666 3.7041668"
   version="1.1"
   id="svg846">
  <defs
     id="defs840" />
  <metadata
     id="metadata843">
    <rdf:RDF>
      <cc:Work
         rdf:about="">
        <dc:format>image/svg+xml</dc:format>
        <dc:type
           rdf:resource="http://purl.org/dc/dcmitype/StillImage" />
        <dc:title></dc:title>
      </cc:Work>
    </rdf:RDF>
  </metadata>
  <g
     id="layer2"
     style="display:inline">
    <path
       id="path854"
       style="color:#000000;font-style:normal;font-variant:normal;font-weight:normal;font-stretch:normal;font-size:medium;line-height:normal;font-family:sans-serif;font-variant-ligatures:normal;font-variant-position:normal;font-variant-caps:normal;font-variant-numeric:normal;font-variant-alternates:normal;font-variant-east-asian:normal;font-feature-settings:normal;font-variation-settings:normal;text-indent:0;text-align:start;text-decoration:none;text-decoration-line:none;text-decoration-style:solid;text-decoration-color:#000000;letter-spacing:normal;word-spacing:normal;text-transform:none;writing-mode:lr-tb;direction:ltr;text-orientation:mixed;dominant-baseline:auto;baseline-shift:baseline;text-anchor:start;white-space:normal;shape-padding:0;shape-margin:0;inline-size:0;clip-rule:nonzero;display:inline;overflow:visible;visibility:visible;opacity:1;isolation:auto;mix-blend-mode:normal;color-interpolation:sRGB;color-interpolation-filters:linearRGB;solid-color:#000000;solid-opacity:1;vector-effect:none;fill:#000000;fill-opacity:1;fill-rule:evenodd;stroke:none;stroke-width:0.755906;stroke-linecap:butt;stroke-linejoin:miter;stroke-miterlimit:4;stroke-dasharray:none;stroke-dashoffset:0;stroke-opacity:1;color-rendering:auto;image-rendering:auto;shape-rendering:auto;text-rendering:auto;enable-background:accumulate;stop-color:#000000;stop-opacity:1"
       d="M 4.9140625,10.060547 3.6386719,13.878906 3.6386718,14 4.7378869,14 6.9980469,12.638672 9.2554069,14 h 1.1020151 l 0,-0.121094 -1.2714845,-3.818359 c -0.3909612,0.161194 -0.7992828,0.276547 -1.2167969,0.34375 l 0.2207032,0.21875 H 5.9121094 l 0.21875,-0.21875 C 5.7133453,10.337094 5.3050237,10.221741 4.9140625,10.060547 Z M 6.3632812,11.375 H 7.640625 l -0.6425781,0.384766 z m -1.1523437,0.193359 1.0566406,0.634766 -1.5878906,0.951172 z m 3.5800781,0 0.5253906,1.585938 -1.5800781,-0.951172 z"
       transform="scale(0.26458333)" />
  </g>
  <g
     id="layer1"
     style="display:inline">
    <path
       id="path1431"
       style="fill:#000000;fill-rule:evenodd;stroke:none;stroke-width:0.999999px;stroke-linecap:butt;stroke-linejoin:miter;stroke-opacity:1"
       d="M 6.9980469,0 A 5.0001063,5.0014696 0 0 0 5.5625,0.2109375 L 7,5 8.4355469,0.21289062 A 5.0001063,5.0014696 0 0 0 6.9980469,0 Z M 7,5 2.5957031,7.3710938 a 5.0001063,5.0014696 0 0 0 0.7207031,1.015625 l 0.265625,0.2675781 a 5.0001063,5.0014696 0 0 0 0.019531,0.017578 5.0001063,5.0014696 0 0 0 1.0253906,0.734375 z M 7,5 2.2089844,3.5625 A 5.0001063,5.0014696 0 0 0 2,4.90625 V 5.1464844 A 5.0001063,5.0014696 0 0 0 2.2070312,6.4375 Z M 7,5 4.6289062,0.59765625 A 5.0001063,5.0014696 0 0 0 3.5449219,1.3847656 L 3.3457031,1.5839844 A 5.0001063,5.0014696 0 0 0 2.5976562,2.6289062 Z M 7,5 5.5625,9.7929688 A 5.0001063,5.0014696 0 0 0 6.8105469,10 H 7.1425781 A 5.0001063,5.0014696 0 0 0 8.4375,9.7910156 Z M 7,5 9.3710938,9.4023438 A 5.0001063,5.0014696 0 0 0 10.517578,8.5527344 5.0001063,5.0014696 0 0 0 11.400391,7.3691406 Z M 11.787109,3.5644531 7,5 11.787109,6.4355469 a 5.0001063,5.0014696 0 0 0 0.210938,-1.4335938 5.0001063,5.0014696 0 0 0 -0.210938,-1.4375 z M 9.3691406,0.59960938 7,5 11.398438,2.6308594 A 5.0001063,5.0014696 0 0 0 10.548828,1.4804688 5.0001063,5.0014696 0 0 0 9.3691406,0.59960938 Z"
       transform="scale(0.26458333)" />
  </g>
</svg>
